<svg xmlns="http://www.w3.org/2000/svg" width="877" height="159" viewBox="0 0 877 159">
  <defs>
    <style>
      .cls-1 {
        fill: #565be1;
        fill-rule: evenodd;
      }
    </style>
  </defs>
  <path id="forecaster" class="cls-1" d="M28.7,156.1q4.969-2.746,4.972-7.194V81.418H57.576a6.5,6.5,0,0,0,6.03-3.6,16.2,16.2,0,0,0,2.01-8.04,16.394,16.394,0,0,0-2.01-7.934,6.483,6.483,0,0,0-6.03-3.7H33.668V39.526a12.311,12.311,0,0,1,1.481-6.453,9.545,9.545,0,0,1,4.126-3.7A13.761,13.761,0,0,1,45.3,28.1h8.04q6.134,0,9.2-4.232a15.835,15.835,0,0,0,3.068-9.521,15.991,15.991,0,0,0-3.068-9.415Q59.479,0.6,53.345.6H38.111A33.47,33.47,0,0,0,19.492,6.1,39.738,39.738,0,0,0,5.951,21.224a46.234,46.234,0,0,0-5.078,21.9V148.911q0,4.445,4.655,7.194a22.083,22.083,0,0,0,11.425,2.751A23.879,23.879,0,0,0,28.7,156.1Zm107.374-1.481a51.212,51.212,0,0,0,17.667-16.609,39.495,39.495,0,0,0,6.664-21.9V101.306a39.526,39.526,0,0,0-6.664-22.321,49.9,49.9,0,0,0-41.575-22.11,48.686,48.686,0,0,0-24.12,6.136A47.923,47.923,0,0,0,70.587,79.3a40.242,40.242,0,0,0-6.453,22v14.811a39.832,39.832,0,0,0,6.665,22.11,50.5,50.5,0,0,0,17.561,16.5A48.356,48.356,0,0,0,136.07,154.624Zm-31.631-24.543a16.7,16.7,0,0,1-5.5-6.03,16.339,16.339,0,0,1-2.01-7.934V101.306a15.37,15.37,0,0,1,2.01-7.616,17.032,17.032,0,0,1,5.5-5.924,13.976,13.976,0,0,1,15.445,0,18.05,18.05,0,0,1,5.607,5.924,14.824,14.824,0,0,1,2.116,7.616v14.811a15.746,15.746,0,0,1-2.116,7.934,17.664,17.664,0,0,1-5.607,6.03A13.978,13.978,0,0,1,104.439,130.081Zm95.948,25.6q4.864-3.174,4.866-6.982V116.963a37.975,37.975,0,0,1,3.386-16.714,28.874,28.874,0,0,1,8.674-10.9,18.26,18.26,0,0,1,11-3.914h6.136q4.651,0,8.146-4.232a15.443,15.443,0,0,0,3.491-10.156,15.152,15.152,0,0,0-3.491-9.944q-3.492-4.23-8.146-4.231h-6.136a20.332,20.332,0,0,0-10.261,2.856,36.224,36.224,0,0,0-8.887,7.194,35.232,35.232,0,0,0-6.03,8.992V68.089q0-4.443-4.231-7.194a18.649,18.649,0,0,0-10.367-2.751A22,22,0,0,0,177.008,60.9q-4.552,2.752-4.549,7.194V148.7q0,3.809,4.549,6.982a19.685,19.685,0,0,0,11.531,3.174A21.226,21.226,0,0,0,200.387,155.682ZM321.729,157.9q8.776-3.065,13.647-7.511t4.866-8.464a16.155,16.155,0,0,0-1.375-5.924,16.451,16.451,0,0,0-4.126-5.924,9.339,9.339,0,0,0-6.559-2.539,14.888,14.888,0,0,0-6.982,1.9q-3.6,1.905-8.252,3.915a28.179,28.179,0,0,1-11.213,2.01q-9.735,0-15.657-4.761a15.345,15.345,0,0,1-5.924-12.589v-1.269h40.834a49.037,49.037,0,0,0,9.627-.952,12.6,12.6,0,0,0,7.828-5.078q3.065-4.126,3.068-13.647a35.57,35.57,0,0,0-6.347-21.052,43.651,43.651,0,0,0-16.609-14.07,52.758,52.758,0,0,0-47.076.952,48.584,48.584,0,0,0-17.561,15.974,38.77,38.77,0,0,0-6.559,21.793v15.445a40.88,40.88,0,0,0,6.876,23.485,45.356,45.356,0,0,0,18.937,15.763q12.06,5.6,27.716,5.606A63.394,63.394,0,0,0,321.729,157.9ZM280.154,93.267a11.2,11.2,0,0,1,2.221-7.088,13.249,13.249,0,0,1,5.713-4.231,19.755,19.755,0,0,1,7.3-1.375,20.335,20.335,0,0,1,7.511,1.375,13.244,13.244,0,0,1,5.713,4.231,11.2,11.2,0,0,1,2.221,7.088q0,2.965-1.057,4.02a4.635,4.635,0,0,1-3.386,1.058H280.154V93.267Zm135.83,65.061a35.989,35.989,0,0,0,13.118-6.982q4.865-4.335,4.866-8.992a17.567,17.567,0,0,0-1.587-6.877,15.914,15.914,0,0,0-4.76-6.241A11.813,11.813,0,0,0,420,126.7a10.371,10.371,0,0,0-5.184,1.375A63.6,63.6,0,0,1,409,130.927a23.061,23.061,0,0,1-9.1,1.481q-9.733,0-13.752-4.231t-4.02-12.06V101.73q0-7.826,4.02-12.06t13.541-4.232A28.5,28.5,0,0,1,409,86.708a47.247,47.247,0,0,1,6.03,2.539A10.627,10.627,0,0,0,420,90.516a9.3,9.3,0,0,0,6.665-2.751,19.27,19.27,0,0,0,4.443-6.559,17.916,17.916,0,0,0,1.587-6.77q0-4.651-4.655-8.675a34.606,34.606,0,0,0-12.695-6.453,63.7,63.7,0,0,0-18.407-2.433q-16.5,0-27.082,5.924a36.728,36.728,0,0,0-15.551,16.08,51.264,51.264,0,0,0-4.972,22.851v14.387a51.261,51.261,0,0,0,4.972,22.85,36.586,36.586,0,0,0,15.657,16.08q10.681,5.922,27.4,5.924A60.923,60.923,0,0,0,415.984,158.327Zm67.49-2.539a69.1,69.1,0,0,0,13.33-11.743V148.7q0,4.235,4.231,7.194a17.605,17.605,0,0,0,10.368,2.962,20.73,20.73,0,0,0,11.531-2.962q4.547-2.961,4.549-7.194V98.344a43.391,43.391,0,0,0-4.867-20.206q-4.869-9.412-15.445-15.339t-27.928-5.924a65.958,65.958,0,0,0-16.186,2.116,46.625,46.625,0,0,0-14.176,5.924q-5.821,3.808-5.818,8.886a22.852,22.852,0,0,0,2.856,11q2.858,5.291,8.146,5.289a8.424,8.424,0,0,0,5.29-1.8,27.809,27.809,0,0,1,6.558-3.491q4.23-1.691,12.907-1.693,6.133,0,9.521,2.433a13.876,13.876,0,0,1,4.866,6.03,18.823,18.823,0,0,1,1.481,7.194v2.115h-7.617a107.652,107.652,0,0,0-25.706,2.751q-11.109,2.752-17.456,9.732t-6.347,19.466q0,14.39,8.04,21.263a28.345,28.345,0,0,0,19.042,6.876Q475.857,160.971,483.474,155.788ZM472.9,134.947q-2.331-2.112-2.328-6.77,0-5.077,3.28-7.511a18.646,18.646,0,0,1,8.674-3.174,83.508,83.508,0,0,1,11.32-.74h0.846V117.6a18.693,18.693,0,0,1-2.645,9.733,23.658,23.658,0,0,1-6.241,7.087,11.851,11.851,0,0,1-6.982,2.645A8.456,8.456,0,0,1,472.9,134.947Zm135.091,17.138q10.473-8.886,10.473-23.7,0-9.308-3.6-15.127a28.015,28.015,0,0,0-9.309-9.31,48.337,48.337,0,0,0-12.06-5.289q-6.348-1.8-12.06-3.174a56,56,0,0,1-9.31-2.962q-3.6-1.587-3.6-4.549A4.8,4.8,0,0,1,569.8,84.8a9.938,9.938,0,0,1,3.914-2.539,18.789,18.789,0,0,1,6.876-1.058,28.3,28.3,0,0,1,9.945,1.587q4.23,1.587,7.616,3.174a14.652,14.652,0,0,0,6.136,1.587,8.325,8.325,0,0,0,6.453-2.962,20.831,20.831,0,0,0,4.02-6.665,18.047,18.047,0,0,0,1.375-5.818q0-4.443-5.183-7.934a40.178,40.178,0,0,0-13.33-5.4,76.55,76.55,0,0,0-17.455-1.9q-15.025,0-23.7,4.866T544.09,74.119a34.341,34.341,0,0,0-3.7,15.339q0,8.886,3.6,14.387a26.378,26.378,0,0,0,9.2,8.675,53.988,53.988,0,0,0,11.954,4.972q6.348,1.8,11.954,3.174a37.372,37.372,0,0,1,9.2,3.385,6.193,6.193,0,0,1,3.6,5.607q0,2.118-2.328,4.549t-10.79,2.433q-8.465,0-13.435-2.327a52.337,52.337,0,0,1-8.358-4.761,11.571,11.571,0,0,0-6.77-2.433,7.551,7.551,0,0,0-5.607,2.539,18.546,18.546,0,0,0-3.808,5.924,16.078,16.078,0,0,0-1.376,5.924q0,5.079,5.4,9.521t14.6,7.194a70.426,70.426,0,0,0,20.205,2.75Q597.51,160.971,607.987,152.085Zm72.251,6.771q7.189,0,10.578-4.232a14.93,14.93,0,0,0,0-18.936q-3.387-4.333-10.578-4.337h-9.1q-4.87,0-6.771-1.8t-1.9-6.453V81.418h23.908a6.5,6.5,0,0,0,6.03-3.6,16.2,16.2,0,0,0,2.01-8.04,16.393,16.393,0,0,0-2.01-7.934,6.483,6.483,0,0,0-6.03-3.7H662.465V24.292q0-4.443-5.184-7.194a23.809,23.809,0,0,0-11.319-2.751,23.567,23.567,0,0,0-11,2.751q-5.292,2.752-5.29,7.194V123.1q0,18.621,10.685,27.188t30.785,8.569h9.1Zm93.2-.952q8.778-3.065,13.647-7.511t4.867-8.464a16.138,16.138,0,0,0-1.376-5.924,16.448,16.448,0,0,0-4.125-5.924,9.341,9.341,0,0,0-6.559-2.539,14.885,14.885,0,0,0-6.982,1.9q-3.6,1.905-8.252,3.915a28.181,28.181,0,0,1-11.214,2.01q-9.734,0-15.656-4.761a15.346,15.346,0,0,1-5.925-12.589v-1.269H772.7a49.037,49.037,0,0,0,9.627-.952,12.6,12.6,0,0,0,7.828-5.078q3.064-4.126,3.068-13.647a35.577,35.577,0,0,0-6.347-21.052,43.651,43.651,0,0,0-16.609-14.07,52.758,52.758,0,0,0-47.076.952,48.584,48.584,0,0,0-17.561,15.974,38.77,38.77,0,0,0-6.559,21.793v15.445a40.88,40.88,0,0,0,6.876,23.485,45.354,45.354,0,0,0,18.936,15.763q12.06,5.6,27.717,5.606A63.384,63.384,0,0,0,773.439,157.9ZM731.864,93.267a11.2,11.2,0,0,1,2.222-7.088,13.244,13.244,0,0,1,5.713-4.231,19.755,19.755,0,0,1,7.3-1.375,20.335,20.335,0,0,1,7.511,1.375,13.249,13.249,0,0,1,5.713,4.231,11.2,11.2,0,0,1,2.221,7.088q0,2.965-1.058,4.02a4.63,4.63,0,0,1-3.385,1.058H731.864V93.267Zm100.709,62.415q4.865-3.174,4.866-6.982V116.963a37.975,37.975,0,0,1,3.385-16.714,28.886,28.886,0,0,1,8.675-10.9,18.26,18.26,0,0,1,11-3.914h6.136q4.652,0,8.146-4.232a15.443,15.443,0,0,0,3.491-10.156,15.152,15.152,0,0,0-3.491-9.944q-3.492-4.23-8.146-4.231H860.5a20.332,20.332,0,0,0-10.261,2.856,36.224,36.224,0,0,0-8.887,7.194,35.232,35.232,0,0,0-6.03,8.992V68.089q0-4.443-4.231-7.194a18.652,18.652,0,0,0-10.368-2.751A22,22,0,0,0,809.193,60.9q-4.551,2.752-4.549,7.194V148.7q0,3.809,4.549,6.982a19.689,19.689,0,0,0,11.531,3.174A21.23,21.23,0,0,0,832.573,155.682Z"/>
</svg>
